PathFileType	4	(X/Y/Z)	/Users/itak/Documents/Research/Walk-IL/dataset/trc/00097_00006.trc
DataRate	CameraRate	NumFrames	NumMarkers	Units	OrigDataRate	OrigDataStartFrame	OrigNumFrames
100.000000	100.000000	4	53	mm	100.000000	0	520
Frame#	Time	RPSI			LPSI			L3			STRN			T10			C7			CLAV			RBAK			LBAK			LSHO			LUPA			LAEL			LAOL			LWTS			LWPS			LFRA			LIFD			LHPS			LHTS			RSHO			RUPA			RAEL			RAOL			RWTS			RWPS			RFRA			RIFD			RHTS			RHPS			RBHD			LFHD			RFHD			LBHD			LHIP			RHIP			RASI			LASI			LKNE			LTHI			LANK			LTIP			LTOE			LMT1			LMT5			LHEE			RKNE			RTHI			RANK			RTIP			RTOE			RMT1			RMT5			RHEE			
		X1	Y1	Z1	X2	Y2	Z2	X3	Y3	Z3	X4	Y4	Z4	X5	Y5	Z5	X6	Y6	Z6	X7	Y7	Z7	X8	Y8	Z8	X9	Y9	Z9	X10	Y10	Z10	X11	Y11	Z11	X12	Y12	Z12	X13	Y13	Z13	X14	Y14	Z14	X15	Y15	Z15	X16	Y16	Z16	X17	Y17	Z17	X18	Y18	Z18	X19	Y19	Z19	X20	Y20	Z20	X21	Y21	Z21	X22	Y22	Z22	X23	Y23	Z23	X24	Y24	Z24	X25	Y25	Z25	X26	Y26	Z26	X27	Y27	Z27	X28	Y28	Z28	X29	Y29	Z29	X30	Y30	Z30	X31	Y31	Z31	X32	Y32	Z32	X33	Y33	Z33	X34	Y34	Z34	X35	Y35	Z35	X36	Y36	Z36	X37	Y37	Z37	X38	Y38	Z38	X39	Y39	Z39	X40	Y40	Z40	X41	Y41	Z41	X42	Y42	Z42	X43	Y43	Z43	X44	Y44	Z44	X45	Y45	Z45	X46	Y46	Z46	X47	Y47	Z47	X48	Y48	Z48	X49	Y49	Z49	X50	Y50	Z50	X51	Y51	Z51	X52	Y52	Z52	X53	Y53	Z53	

1	0	-1354.81787109375	1038.748779296875	176.1084594726562	-1373.268920898438	1030.327026367188	0.7664504647254944	-1360.811645507812	1086.7236328125	80.87252807617188	-1116.333251953125	1289.482543945312	72.56775665283203	-1382.964965820312	1221.190795898438	76.09871673583984	-1327.297973632812	1488.64794921875	67.05959320068359	-1146.737060546875	1403.915283203125	68.75016784667969	-1388.08544921875	1350.749877929688	146.7135772705078	-1348.210083007812	1448.417114257812	-34.19308471679688	-1244.209228515625	1452.309204101562	-107.3668518066406	-1260.28564453125	1323.391723632812	-182.4717254638672	-1241.204345703125	1109.33154296875	-200.5461730957031	-1301.72314453125	1094.720703125	-112.721565246582	-1155.084838867188	865.9312133789062	-146.2731475830078	-1214.265625	858.942138671875	-204.3843231201172	-1223.851806640625	1000.644897460938	-210.4594573974609	-1156.0517578125	683.918701171875	-126.5936660766602	-1183.136962890625	776.9354858398438	-203.5225219726562	-1133.658447265625	784.0819091796875	-153.5370788574219	-1261.56640625	1453.99169921875	243.7706298828125	-1269.321533203125	1384.024658203125	310.2138977050781	-1282.425537109375	1114.831420898438	334.1217346191406	-1268.086791992188	1094.31494140625	235.2313842773438	-1140.186157226562	865.3963012695312	299.5080871582031	-1208.514892578125	852.3628540039062	352.8141479492188	-1267.256103515625	1038.429565429688	340.1883544921875	-1147.714477539062	682.611083984375	279.2472534179688	-1114.39111328125	764.7073974609375	303.3734741210938	-1169.741333007812	763.4614868164062	358.8386840820312	-1308.43310546875	1653.409912109375	125.8447875976562	-1118.586059570312	1710.737060546875	24.74894905090332	-1145.7314453125	1704.576416015625	147.7491455078125	-1288.060546875	1666.611938476562	-10.2683572769165	-1272.788818359375	965.27099609375	-92.09360504150391	-1284.114013671875	968.0704956054688	250.4901123046875	-1160.667114257812	983.0283813476562	222.2299957275391	-1157.441040039062	976.350830078125	-46.66842269897461	-1195.266845703125	503.1358642578125	-50.23417282104492	-1229.4736328125	643.54833984375	-83.35709381103516	-1329.58349609375	53.17322158813477	-69.1817626953125	-1269.35302734375	266.7922058105469	-72.95655059814453	-1123.197387695312	48.00539779663086	-70.28471374511719	-1170.374755859375	46.95720291137695	-14.78701210021973	-1227.693359375	43.8701171875	-111.0115432739258	-1378.453125	50.06155776977539	9.300389289855957	-1217.09130859375	521.0577392578125	226.8671417236328	-1202.239135742188	792.8047485351562	254.1228485107422	-1310.95654296875	47.4700927734375	233.4969940185547	-1241.048217773438	401.00341796875	233.7869567871094	-1097.218994140625	43.40036773681641	177.2871704101562	-1161.8466796875	46.95758056640625	142.893798828125	-1184.3720703125	50.07112884521484	238.0174407958984	nan	nan	nan	
2	0.01	-1354.946166992188	1038.7216796875	176.1063537597656	-1373.390502929688	1030.276977539062	0.7604628205299377	-1360.909790039062	1086.667358398438	80.88787841796875	-1116.545532226562	1289.54150390625	72.62313842773438	-1383.119995117188	1221.105346679688	76.07363891601562	-1327.628662109375	1488.522338867188	66.98089599609375	-1147.011962890625	1403.944091796875	68.76891326904297	-1388.359497070312	1350.654052734375	146.6491546630859	-1348.4609375	1448.3349609375	-34.25754165649414	-1244.468627929688	1452.307495117188	-107.3683700561523	-1260.141967773438	1323.342407226562	-182.41845703125	-1240.278198242188	1109.275634765625	-200.3667602539062	-1300.866088867188	1094.48486328125	-112.6901092529297	-1152.147705078125	866.9327392578125	-145.0438232421875	-1211.256103515625	859.068603515625	-203.091064453125	-1222.015625	1000.656799316406	-209.8490753173828	-1151.159423828125	685.097412109375	-124.4854431152344	-1179.2392578125	777.3413696289062	-201.8460540771484	-1129.898559570312	785.2872924804688	-151.9115753173828	-1261.901977539062	1453.989379882812	243.7936859130859	-1269.4833984375	1383.983276367188	310.2152709960938	-1282.096801757812	1114.713256835938	334.0324401855469	-1267.681396484375	1094.303344726562	235.1926422119141	-1138.851196289062	865.9121704101562	298.7454528808594	-1207.020263671875	852.4074096679688	352.1101989746094	-1266.631958007812	1038.244750976562	340.0147399902344	-1145.49462890625	683.14990234375	278.1089172363281	-1112.450805664062	765.2449340820312	302.2659606933594	-1167.818725585938	763.6181030273438	357.8613891601562	-1308.653442382812	1653.420654296875	125.9457397460938	-1118.947509765625	1710.78466796875	24.82163047790527	-1146.056762695312	1704.534423828125	147.8354339599609	-1288.403198242188	1666.63916015625	-10.20566177368164	-1272.798217773438	965.2559204101562	-92.04460906982422	-1284.22314453125	968.0501708984375	250.4802856445312	-1160.760375976562	983.0540771484375	222.2325134277344	-1157.580444335938	976.391357421875	-46.68711471557617	-1195.272094726562	503.1466064453125	-50.22400283813477	-1229.419921875	643.5321044921875	-83.310791015625	-1329.580200195312	53.17375564575195	-69.17428588867188	-1269.346801757812	266.7915344238281	-72.95858764648438	-1123.1923828125	48.00426483154297	-70.28266143798828	-1170.369506835938	46.9539680480957	-14.78352832794189	-1227.697265625	43.89395523071289	-111.0113143920898	-1378.4501953125	50.06083679199219	9.295928001403809	-1217.09423828125	521.0597534179688	226.884765625	-1202.300903320312	792.8311157226562	254.1043853759766	-1310.96435546875	47.47430801391602	233.4849090576172	-1241.055541992188	401.0018615722656	233.7874450683594	-1097.212890625	43.39749908447266	177.2908477783203	-1161.851684570312	46.95935440063477	142.9012908935547	-1184.379272460938	50.05817794799805	238.0294647216797	nan	nan	nan	
3	0.02	-1355.110473632812	1038.683227539062	176.1024322509766	-1373.535278320312	1030.215209960938	0.7574922442436218	-1361.03955078125	1086.595581054688	80.90125274658203	-1116.807983398438	1289.611083984375	72.69956970214844	-1383.31298828125	1221.000244140625	76.0394287109375	-1328.042114257812	1488.392700195312	66.90608978271484	-1147.34814453125	1403.981201171875	68.80168151855469	-1388.701538085938	1350.536743164062	146.5685577392578	-1348.766357421875	1448.234375	-34.33854675292969	-1244.774658203125	1452.310668945312	-107.3695907592773	-1259.948364257812	1323.289672851562	-182.3544464111328	-1239.111206054688	1109.218872070312	-200.1434020996094	-1299.808837890625	1094.202026367188	-112.6667785644531	-1148.470825195312	868.2401123046875	-143.4759063720703	-1207.472778320312	859.2604370117188	-201.4448699951172	-1219.728881835938	1000.687255859375	-209.0905609130859	-1145.025268554688	686.6494140625	-121.803352355957	-1174.335571289062	777.917236328125	-199.6950988769531	-1125.125366210938	786.87841796875	-149.8445587158203	-1262.314086914062	1453.986206054688	243.8070373535156	-1269.7138671875	1383.931396484375	310.2001342773438	-1281.699340820312	1114.568603515625	333.9267578125	-1267.205688476562	1094.283569335938	235.135986328125	-1137.172241210938	866.5861206054688	297.7770385742188	-1205.13232421875	852.4761352539062	351.2227478027344	-1265.868286132812	1038.017944335938	339.7932739257812	-1142.655395507812	683.8659057617188	276.6636352539062	-1110.15771484375	765.8717041015625	300.8325805664062	-1165.404052734375	763.8510131835938	356.6347045898438	-1308.944580078125	1653.43408203125	126.0522003173828	-1119.377075195312	1710.84375	24.91682434082031	-1146.461547851562	1704.482543945312	147.9382476806641	-1288.8154296875	1666.678344726562	-10.11751842498779	-1272.817504882812	965.2357177734375	-91.98919677734375	-1284.357299804688	968.025634765625	250.4770050048828	-1160.8837890625	983.0847778320312	222.2428283691406	-1157.74853515625	976.4429931640625	-46.703369140625	-1195.27734375	503.1599426269531	-50.20985412597656	-1229.341064453125	643.5128173828125	-83.247802734375	-1329.574584960938	53.17457962036133	-69.16400909423828	-1269.337768554688	266.7910766601562	-72.95944976806641	-1123.184448242188	48.00167846679688	-70.27921295166016	-1170.3623046875	46.9503059387207	-14.77872085571289	-1227.699951171875	43.91887283325195	-111.0090637207031	-1378.447021484375	50.06128311157227	9.290650367736816	-1217.104736328125	521.063232421875	226.9088439941406	-1202.382080078125	792.8616333007812	254.0902557373047	-1310.971069335938	47.47912979125977	233.4732360839844	-1241.068115234375	400.9997863769531	233.7916259765625	-1097.204467773438	43.39358139038086	177.2960815429688	-1161.855834960938	46.96102523803711	142.9100646972656	-1184.38720703125	50.04611206054688	238.0425415039062	-1362.46435546875	46.63458633422852	182.0316314697266	
4	0.03	-1355.305297851562	1038.63330078125	176.0966033935547	-1373.692016601562	1030.14501953125	0.7595791220664978	-1361.19970703125	1086.510864257812	80.90821838378906	-1117.106811523438	1289.68603515625	72.796142578125	-1383.536499023438	1220.880249023438	75.99538421630859	-1328.519287109375	1488.2763671875	66.8453369140625	-1147.726928710938	1404.025634765625	68.85099029541016	-1389.095703125	1350.404541015625	146.4753112792969	-1349.109252929688	1448.120483398438	-34.43319702148438	-1245.105590820312	1452.321044921875	-107.3703994750977	-1259.708374023438	1323.239990234375	-182.2841033935547	-1237.755859375	1109.169921875	-199.8889923095703	-1298.6015625	1093.890502929688	-112.6578140258789	-1144.207763671875	869.8237915039062	-141.6239929199219	-1203.070922851562	859.5269775390625	-199.5034027099609	-1217.095947265625	1000.743713378906	-208.2184753417969	-1137.910278320312	688.54638671875	-118.6392517089844	-1168.6259765625	778.6705322265625	-197.1390380859375	-1119.532470703125	788.8296508789062	-147.4107818603516	-1262.781005859375	1453.981811523438	243.8034973144531	-1270.015258789062	1383.870971679688	310.1618347167969	-1281.256103515625	1114.405517578125	333.8134155273438	-1266.697509765625	1094.25439453125	235.0594787597656	-1135.218627929688	867.4007568359375	296.6347045898438	-1202.929809570312	852.5725708007812	350.1836853027344	-1265.004150390625	1037.760864257812	339.5338134765625	-1139.303466796875	684.7422485351562	274.9558410644531	-1107.624389648438	766.5825805664062	299.1515502929688	-1162.589233398438	764.1659545898438	355.2045288085938	-1309.302001953125	1653.44970703125	126.1501159667969	-1119.845703125	1710.910766601562	25.03251266479492	-1146.92578125	1704.423706054688	148.0520629882812	-1289.267578125	1666.73046875	-10.00797748565674	-1272.852294921875	965.2109985351562	-91.93472290039062	-1284.511840820312	967.998291015625	250.4841766357422	-1161.035278320312	983.1179809570312	222.2637023925781	-1157.933959960938	976.5039672851562	-46.71261215209961	-1195.281982421875	503.175048828125	-50.1910285949707	-1229.27490234375	643.5025634765625	-83.18869781494141	-1329.566162109375	53.17616653442383	-69.15095520019531	-1269.325439453125	266.7911376953125	-72.95783996582031	-1123.174194335938	47.99743270874023	-70.27442932128906	-1170.35400390625	46.94665145874023	-14.77281284332275	-1227.699829101562	43.94087982177734	-111.0040435791016	-1378.44384765625	50.06346130371094	9.284960746765137	-1217.124633789062	521.0681762695312	226.9389801025391	-1202.482177734375	792.89306640625	254.0858154296875	-1310.97412109375	47.48288345336914	233.4645843505859	-1241.0859375	400.9970703125	233.8003845214844	-1097.194458007812	43.38891220092773	177.3026733398438	-1161.858520507812	46.96245956420898	142.9188995361328	-1184.395385742188	50.03635406494141	238.0558471679688	-1362.994873046875	47.30146026611328	181.5860290527344	
